<svg width="34" height="34" viewBox="0 0 34 34" fill="none" xmlns="http://www.w3.org/2000/svg">
<rect width="34" height="34" rx="8" fill="#000000"/>
<path d="M20.3644 12.2157H18.7911V12.8642L20.0607 13.0651L18.5011 17.4198C18.4189 17.6505 18.0923 17.6528 18.0078 17.4198L16.414 13.0514L17.7042 12.8642V12.2111H13.9136L11.1301 12.2065L11.1941 9.93896H9.87195L9.24629 12.2042H7.91504V12.8619L9.13211 13.0491V16.7188C9.13211 17.3605 9.11613 17.7532 9.11613 18.2396C9.11613 19.6874 9.90848 20.3154 11.2237 20.3154C12.2399 20.3154 12.9614 19.918 13.3839 19.2352L12.9934 18.8151C12.6212 19.0914 12.3221 19.2261 11.991 19.2261C11.4681 19.2261 11.1119 18.8699 11.1119 18.0569V13.0491H13.6077C13.989 13.0491 14.3315 13.2775 14.4776 13.6314L17.3708 20.6077L17.3342 20.7127C17.042 21.5393 16.6058 22.302 16.0258 22.8501L15.9276 22.7291C15.4846 22.1833 15.0531 22.0417 14.6192 22.0417C14.0484 22.0417 13.5232 22.3272 13.3953 22.9186C13.425 23.59 14.1534 24.0832 14.9937 24.0832C16.4323 24.0832 17.2634 22.9003 18.2248 20.3747L21.0357 13.0332L21.9559 12.8573V12.2088H20.3666L20.3644 12.2157Z" fill="#F7F7F6"/>
<path d="M24.0092 15.9502C22.8698 15.9502 21.9473 16.8727 21.9473 18.0122C21.9473 19.1517 22.8698 20.0743 24.0092 20.0743C25.1486 20.0743 26.0712 19.1517 26.0712 18.0122C26.0712 16.8727 25.1486 15.9502 24.0092 15.9502Z" fill="#F7F7F6"/>
</svg>
